<svg width="35" height="40" viewBox="0 0 35 40" fill="none" xmlns="http://www.w3.org/2000/svg">
<path d="M29.1667 21.0938H23.3333C22.7133 21.0938 22.2062 20.605 22.1702 19.9912C25.6226 18.2616 28 14.6782 28 10.5469C28 4.73133 23.2897 0 17.5 0C11.7103 0 7 4.73133 7 10.5469C7 14.6782 9.37743 18.2616 12.8298 19.9912C12.7938 20.605 12.2867 21.0938 11.6667 21.0938H5.83333C2.61683 21.0938 0 23.7223 0 26.9531V38.8281C0 39.4753 0.522356 40 1.16667 40H33.8333C34.4776 40 35 39.4753 35 38.8281V26.9531C35 23.7223 32.3832 21.0938 29.1667 21.0938ZM9.33333 10.5469C9.33333 6.02367 12.9969 2.34375 17.5 2.34375C22.0031 2.34375 25.6667 6.02367 25.6667 10.5469C25.6667 15.0701 22.0031 18.75 17.5 18.75C12.9969 18.75 9.33333 15.0701 9.33333 10.5469ZM21.963 23.1566L17.5 27.6396L13.037 23.1566C14.025 22.7327 14.7809 21.8652 15.0549 20.8044C15.8398 20.9931 16.6584 21.0938 17.5 21.0938C18.3416 21.0938 19.1602 20.9931 19.9451 20.8044C20.2191 21.8651 20.975 22.7327 21.963 23.1566ZM32.6667 37.6562H28V31.6406C28 30.9934 27.4776 30.4688 26.8333 30.4688C26.189 30.4688 25.6667 30.9934 25.6667 31.6406V37.6562H9.33333V31.6406C9.33333 30.9934 8.81098 30.4688 8.16667 30.4688C7.52236 30.4688 7 30.9934 7 31.6406V37.6562H2.33333V26.9531C2.33333 25.0146 3.90343 23.4375 5.83333 23.4375H10.0168L16.6751 30.1255C16.9028 30.3544 17.2014 30.4688 17.5 30.4688C17.7986 30.4688 18.0972 30.3544 18.3249 30.1255L24.9832 23.4375H29.1667C31.0966 23.4375 32.6667 25.0146 32.6667 26.9531V37.6562ZM22.1667 11.7188C22.811 11.7188 23.3333 11.1941 23.3333 10.5469C23.3333 9.89969 22.811 9.375 22.1667 9.375H18.6667V5.85938C18.6667 5.21219 18.1443 4.6875 17.5 4.6875C16.8557 4.6875 16.3333 5.21219 16.3333 5.85938V10.5469C16.3333 11.1941 16.8557 11.7188 17.5 11.7188H22.1667Z" fill="url(#paint0_linear)"/>
<defs>
<linearGradient id="paint0_linear" x1="17.5" y1="40" x2="17.5" y2="0" gradientUnits="userSpaceOnUse">
<stop stop-color="#E4DEE4"/>
<stop offset="1" stop-color="#F8A58F"/>
</linearGradient>
</defs>
</svg>
