<svg width="77" height="49" viewBox="0 0 77 49" fill="none" xmlns="http://www.w3.org/2000/svg">
<path d="M3.61591 18.8456C10.357 13.471 23.7897 4.45456 38.0124 4.45456C52.235 4.45456 65.6678 13.471 72.4089 18.8456C73.3706 19.6124 74.7721 19.4544 75.5389 18.4927C76.3058 17.5308 76.1477 16.1294 75.186 15.3626C67.9898 9.62511 53.5912 0 38.0125 0C22.4339 0 8.03513 9.62511 0.838942 15.3626C-0.122946 16.1294 -0.280934 17.5308 0.485992 18.4927C1.25247 19.4542 2.65388 19.6125 3.61591 18.8456ZM46.9215 26.7274H40.2397V20.0455C40.2397 18.8155 39.2424 17.8182 38.0124 17.8182C36.7823 17.8182 35.7851 18.8155 35.7851 20.0455V28.9546C35.7851 30.1847 36.7823 31.1819 38.0124 31.1819H46.9215C48.1516 31.1819 49.1488 30.1847 49.1488 28.9546C49.1488 27.7246 48.1516 26.7274 46.9215 26.7274ZM75.3656 27.3731C75.1759 27.1848 70.6402 22.7125 63.8173 18.189C54.5293 12.0312 45.8474 8.90897 38.0122 8.90897C30.1771 8.90897 21.4952 12.0312 12.2071 18.189C5.38422 22.7125 0.848593 27.1848 0.658829 27.3731C0.237131 27.7913 0 28.3605 0 28.9545C0 29.5484 0.237279 30.1177 0.658829 30.5359C0.848593 30.7241 5.38422 35.1965 12.2071 39.72C21.4952 45.8778 30.1771 49 38.0122 49C45.8474 49 54.5293 45.8778 63.8173 39.72C70.6402 35.1965 75.1759 30.7241 75.3656 30.5359C75.7873 30.1177 76.0246 29.5484 76.0246 28.9545C76.0246 28.3605 75.7873 27.7914 75.3656 27.3731ZM21.1847 39.8352C14.1207 36.2035 8.27479 31.4011 5.51163 28.9533C8.27464 26.5024 14.1209 21.6946 21.192 18.0628C19.153 21.2007 17.9669 24.9415 17.9669 28.9546C17.9669 32.9628 19.1501 36.6996 21.1847 39.8352ZM38.0124 44.5456C29.4166 44.5456 22.4214 37.5524 22.4214 28.9546C22.4214 20.3587 29.4148 13.3637 38.0124 13.3637C46.6082 13.3637 53.6033 20.3569 53.6033 28.9546C53.6033 37.5506 46.61 44.5456 38.0124 44.5456ZM54.8326 39.8465C56.8716 36.7084 58.0577 32.9676 58.0577 28.9546C58.0577 24.9464 56.8745 21.2096 54.8399 18.0739C61.904 21.7056 67.7497 26.508 70.513 28.9558C67.7501 31.4067 61.9038 36.2145 54.8326 39.8465Z" fill="url(#paint0_linear)"/>
<defs>
<linearGradient id="paint0_linear" x1="38.0124" y1="49.0001" x2="38.0124" y2="0" gradientUnits="userSpaceOnUse">
<stop stop-color="#E4DEE4"/>
<stop offset="1" stop-color="#FBA68E"/>
</linearGradient>
</defs>
</svg>
