<svg width="39" height="39" viewBox="0 0 39 39" fill="none" xmlns="http://www.w3.org/2000/svg">
<path d="M24.1465 4.57031C18.4763 4.57031 13.8633 9.18336 13.8633 14.8535C13.8633 20.5237 18.4763 25.1367 24.1465 25.1367C29.8167 25.1367 34.4297 20.5237 34.4297 14.8535C34.4297 9.18336 29.8167 4.57031 24.1465 4.57031ZM24.1465 22.8516C19.7364 22.8516 16.1485 19.2636 16.1485 14.8535C16.1485 10.4434 19.7364 6.85547 24.1465 6.85547C28.5566 6.85547 32.1445 10.4434 32.1445 14.8535C32.1445 19.2636 28.5566 22.8516 24.1465 22.8516ZM24.1465 0C15.9562 0 9.293 6.66329 9.293 14.8535C9.293 17.7092 10.1038 20.3788 11.5062 22.6454L0.334661 33.817C-0.111554 34.2632 -0.111554 34.9866 0.334661 35.4329L3.56716 38.6654C4.0133 39.1115 4.73678 39.1116 5.183 38.6654L16.3545 27.4938C18.6212 28.8962 21.2907 29.707 24.1465 29.707C32.3367 29.707 39 23.0437 39 14.8535C39 6.66329 32.3367 0 24.1465 0ZM4.37504 36.2416L2.75845 34.625L6.14208 31.2414L7.75867 32.858L4.37504 36.2416ZM9.37458 31.242L7.75798 29.6254L12.8715 24.512C13.3683 25.0912 13.9089 25.6317 14.4881 26.1286L9.37458 31.242ZM24.1465 27.4219C17.2163 27.4219 11.5782 21.7837 11.5782 14.8535C11.5782 7.92332 17.2162 2.28516 24.1465 2.28516C31.0768 2.28516 36.7148 7.92332 36.7148 14.8535C36.7148 21.7837 31.0767 27.4219 24.1465 27.4219ZM28.7168 13.7109H25.2891V10.2832C25.2891 9.65219 24.7775 9.14062 24.1465 9.14062C23.5155 9.14062 23.0039 9.65219 23.0039 10.2832V14.8535C23.0039 15.4845 23.5155 15.9961 24.1465 15.9961H28.7168C29.3478 15.9961 29.8594 15.4845 29.8594 14.8535C29.8594 14.2225 29.3478 13.7109 28.7168 13.7109Z" fill="url(#paint0_linear)"/>
<defs>
<linearGradient id="paint0_linear" x1="19.5" y1="39" x2="19.5" y2="0" gradientUnits="userSpaceOnUse">
<stop stop-color="#F8A58F"/>
<stop offset="1" stop-color="#B19FA4"/>
</linearGradient>
</defs>
</svg>
